Coordinates
version=1
nRows=7
nColumns=33
inDegrees=yes

Units are S.I. units (second, meters, Newtons, ...)
Angles are in degrees.

endheader
time	ground_thorax_rot_x	ground_thorax_rot_y	ground_thorax_rot_z	ground_thorax_tx	ground_thorax_ty	ground_thorax_tz	clav_prot_r	clav_elev_r	scapula_abduction_r	scapula_elevation_r	scapula_upward_rot_r	scapula_winging_r	shoulder_elv_r	plane_of_elev_r	axial_rot_r	elbow_flexion_r	pro_sup_r	wrist_flex_r	wrist_dev_r	clav_prot_l	clav_elev_l	scapula_abduction_l	scapula_elevation_l	scapula_upward_rot_l	scapula_winging_l	shoulder_elv_l	plane_of_elev_l	axial_rot_l	elbow_flexion_l	pro_sup_l	wrist_flex_l	wrist_dev_l
      8.93000000	     38.53562491	     18.53321206	     16.87897646	   -225.12121664	    847.79358731	      5.07587879	     13.43595095	     45.00000000	     45.00000000	     45.00000000	     45.00000000	  -3263.89688997	  -1233.88165006	    -90.00000000	    -91.93264728	   2157.83913463	   -123.37059557	     21.85680130	     16.26796449	     11.86508015	    -45.00000000	    -40.66946821	     45.00000000	    -45.00000000	   2261.56999700	  -2082.59269528	     20.61438988	    -57.55558824	   1451.25135788	     11.02875118	      4.62596424	    -20.70366385
      8.94000000	     38.52584384	     18.35329464	     16.80008261	   -226.34521012	    848.06272080	      5.14678405	     13.44923853	     45.00000000	     45.00000000	     45.00000000	     45.00000000	  -3263.88695182	  -1233.58742890	    -90.00000000	    -92.21176778	   2158.08362634	   -123.43410516	     21.84386264	     16.25308068	     11.84125268	    -45.00000000	    -40.58720731	     45.00000000	    -45.00000000	   2261.68992644	  -2082.56352787	     20.56963161	    -57.66232131	   1451.28505375	     11.72847622	      4.49332717	    -20.70222616
      8.95000000	     38.50132330	     18.16979500	     16.59123269	   -227.50245892	    848.29106884	      5.22923565	     13.47039652	     45.00000000	     45.00000000	     45.00000000	     45.00000000	  -3263.96457078	  -1233.26866531	    -90.00000000	    -92.51722182	   2158.32130751	   -123.52076851	     21.90217839	     16.25337726	     11.67516745	    -45.00000000	    -40.63046812	     45.00000000	    -45.00000000	   2261.71597554	  -2082.45974347	     20.51921586	    -57.72423849	   1451.33972028	     12.36919029	      4.40455990	    -20.71545778
      8.96000000	     38.59000224	     17.88895094	     16.46658103	   -228.59686691	    848.49227544	      5.32046967	     13.48769929	     45.00000000	     45.00000000	     45.00000000	     45.00000000	  -3263.82713346	  -1233.00617797	    -90.00000000	    -92.76622673	   2158.59275793	   -123.59949134	     21.81828055	     16.22377284	     11.64825232	    -45.00000000	    -40.44838699	     45.00000000	    -45.00000000	   2261.77120728	  -2082.56605478	     20.51403020	    -57.52440419	   1451.31802620	     12.99310308	      4.21531344	    -20.67642398
      8.97000000	     38.59851775	     17.70883579	     16.32215298	   -229.62835736	    848.67910469	      5.41721418	     13.50662666	     45.00000000	     45.00000000	     45.00000000	     45.00000000	  -3263.82332786	  -1232.71132432	    -90.00000000	    -93.04817358	   2158.83114167	   -123.69849284	     21.82058858	     16.21937696	     11.59789314	    -45.00000000	    -40.41054766	     45.00000000	    -45.00000000	   2261.82926582	  -2082.55341285	     20.49828751	    -57.63100615	   1451.34817365	     13.65005672	      4.13504674	    -20.67928924
      8.98000000	     38.67723357	     17.48109447	     16.12930051	   -230.59954723	    848.86379684	      5.51628754	     13.52739009	     45.00000000	     45.00000000	     45.00000000	     45.00000000	  -3263.72630089	  -1232.44509213	    -90.00000000	    -93.30239204	   2159.09156506	   -123.79674561	     21.78842228	     16.20912221	     11.49235810	    -45.00000000	    -40.33405370	     45.00000000	    -45.00000000	   2261.80993663	  -2082.63401064	     20.47206950	    -57.52177097	   1451.32975705	     14.23582851	      3.97478209	    -20.64097178
      8.99000000	     38.67344586	     17.30507843	     16.07745696	   -231.51957143	    849.05740420	      5.61543520	     13.54824536	     45.00000000	     45.00000000	     45.00000000	     45.00000000	  -3263.70695103	  -1232.17858140	    -90.00000000	    -93.55632652	   2159.35662191	   -123.89779067	     21.72966267	     16.19968475	     11.50914172	    -45.00000000	    -40.20163438	     45.00000000	    -45.00000000	   2261.90730686	  -2082.64116666	     20.50553022	    -57.41951477	   1451.35139067	     14.85484099	      3.84812305	    -20.61601658
